<?xml version="1.0" encoding="utf-8"?>
<!-- Generator: Adobe Illustrator 24.2.3, SVG Export Plug-In . SVG Version: 6.00 Build 0)  -->
<svg version="1.1" id="Layer_1" xmlns="http://www.w3.org/2000/svg" xmlns:xlink="http://www.w3.org/1999/xlink" x="0px" y="0px"
	 viewBox="0 0 200 200" style="enable-background:new 0 0 200 200;" xml:space="preserve">
<style type="text/css">
	.st0{fill:#2867B1;}
	.st1{fill:#D62839;}
</style>
<g>
	<g>
		<path class="st0" d="M14.32,91.01H8.99l-1.2,4.61H3.48L9.53,74.3h4.28l6.05,21.33h-4.32L14.32,91.01z M9.84,87.76h3.63l-1.77-6.77
			h-0.09L9.84,87.76z"/>
		<path class="st0" d="M30.83,90.12h0.09l4-15.82h5.41v21.33h-4.1V82.19l-0.09-0.01l-3.85,13.45h-2.77l-3.82-13.34L25.6,82.3v13.33
			h-4.12V74.3h5.38L30.83,90.12z"/>
		<path class="st0" d="M52.79,90.12h0.09l4-15.82h5.41v21.33h-4.1V82.19l-0.09-0.01l-3.85,13.45h-2.77l-3.82-13.34l-0.09,0.01v13.33
			h-4.12V74.3h5.38L52.79,90.12z"/>
		<path class="st0" d="M76.14,86.21h-6.52v6.2h7.81v3.22H65.49V74.3H77.4v3.24h-7.78v5.45h6.52V86.21z"/>
		<path class="st0" d="M86.68,81.84h0.09l3.03-7.54h4.79l-5.3,10.58l5.65,10.75h-5l-3.13-7.71h-0.09l-3.12,7.71h-4.8l5.43-10.75
			L78.92,74.3h4.78L86.68,81.84z"/>
		<path class="st0" d="M107.75,95.63h-4.12V74.3h4.12V95.63z"/>
		<path class="st0" d="M120.54,90.12h0.09l4-15.82h5.41v21.33h-4.1V82.19l-0.09-0.01l-3.85,13.45h-2.77l-3.82-13.34l-0.09,0.01
			v13.33h-4.12V74.3h5.38L120.54,90.12z"/>
		<path class="st0" d="M137.37,87.91v7.72h-4.13V74.3h7.13c2.14,0,3.83,0.63,5.08,1.88s1.88,2.9,1.88,4.93
			c0,2.04-0.62,3.68-1.88,4.93s-2.94,1.87-5.08,1.87H137.37z M137.37,84.67h3c0.93,0,1.63-0.33,2.12-1
			c0.48-0.66,0.73-1.51,0.73-2.53c0-1.04-0.24-1.91-0.73-2.58c-0.48-0.68-1.19-1.02-2.12-1.02h-3V84.67z"/>
		<path class="st0" d="M165.1,87.95c0,2.51-0.71,4.47-2.12,5.87s-3.3,2.11-5.65,2.11s-4.23-0.7-5.64-2.11s-2.11-3.36-2.11-5.87V82
			c0-2.5,0.7-4.46,2.1-5.88c1.4-1.42,3.28-2.13,5.63-2.13s4.24,0.71,5.66,2.13c1.42,1.42,2.13,3.38,2.13,5.88V87.95z M162.27,71.68
			V72h-3.22l-1.7-1.98l-1.7,1.98h-3.16v-0.37l3.71-3.47h2.33L162.27,71.68z M160.98,81.96c0-1.55-0.31-2.72-0.95-3.52
			c-0.63-0.79-1.54-1.19-2.73-1.19c-1.2,0-2.1,0.39-2.71,1.18s-0.91,1.96-0.91,3.52v5.99c0,1.58,0.3,2.77,0.92,3.56
			c0.61,0.79,1.52,1.19,2.72,1.19s2.11-0.4,2.73-1.19c0.62-0.79,0.93-1.98,0.93-3.56V81.96z"/>
		<path class="st0" d="M180.42,77.54h-5.01v18.09h-4.15V77.54h-4.88V74.3h14.03V77.54z"/>
		<path class="st0" d="M191.61,90.09c0-0.85-0.22-1.52-0.65-2.01s-1.21-0.97-2.34-1.44c-2.19-0.77-3.83-1.65-4.94-2.62
			s-1.66-2.34-1.66-4.1c0-1.75,0.63-3.17,1.89-4.27s2.87-1.65,4.82-1.65c2.07,0,3.74,0.59,5,1.76s1.87,2.74,1.83,4.72l-0.03,0.09
			h-4.01c0-1.1-0.25-1.94-0.74-2.51s-1.2-0.86-2.12-0.86c-0.79,0-1.41,0.26-1.85,0.78s-0.66,1.17-0.66,1.96
			c0,0.72,0.25,1.32,0.75,1.79s1.35,0.98,2.56,1.54c2.06,0.68,3.62,1.55,4.68,2.59s1.59,2.45,1.59,4.22c0,1.83-0.62,3.26-1.86,4.31
			s-2.89,1.57-4.94,1.57c-2.02,0-3.75-0.56-5.19-1.69s-2.13-2.84-2.08-5.15l0.03-0.09h4.03c0,1.34,0.27,2.3,0.81,2.89
			c0.54,0.59,1.34,0.88,2.39,0.88c0.89,0,1.55-0.24,2-0.73C191.39,91.55,191.61,90.9,191.61,90.09z"/>
	</g>
	<g>
		<path class="st1" d="M33.04,123.16v-16.42h1.91v16.42H33.04z"/>
		<path class="st1" d="M52.28,123.16H50.1l-8.97-13.78h-0.09c0.12,1.62,0.18,3.1,0.18,4.45v9.33h-1.76v-16.42h2.16l8.95,13.72h0.09
			c-0.02-0.2-0.05-0.85-0.1-1.95s-0.07-1.88-0.06-2.35v-9.42h1.79V123.16z"/>
		<path class="st1" d="M63.83,108.21c-1.8,0-3.23,0.6-4.27,1.8c-1.04,1.2-1.57,2.85-1.57,4.94c0,2.15,0.5,3.81,1.51,4.98
			c1.01,1.17,2.44,1.76,4.31,1.76c1.15,0,2.45-0.21,3.92-0.62v1.67c-1.14,0.43-2.54,0.64-4.21,0.64c-2.42,0-4.28-0.73-5.6-2.2
			c-1.31-1.47-1.97-3.55-1.97-6.26c0-1.69,0.32-3.17,0.95-4.45c0.63-1.27,1.55-2.25,2.74-2.94c1.19-0.69,2.6-1.03,4.22-1.03
			c1.72,0,3.23,0.31,4.51,0.94l-0.81,1.64C66.31,108.5,65.07,108.21,63.83,108.21z"/>
		<path class="st1" d="M85.56,114.92c0,2.63-0.66,4.7-1.99,6.2c-1.33,1.51-3.18,2.26-5.54,2.26c-2.42,0-4.28-0.74-5.6-2.22
			c-1.31-1.48-1.97-3.57-1.97-6.26c0-2.67,0.66-4.75,1.98-6.22c1.32-1.47,3.19-2.21,5.62-2.21c2.36,0,4.2,0.75,5.53,2.25
			C84.89,110.22,85.56,112.29,85.56,114.92z M72.47,114.92c0,2.22,0.47,3.91,1.42,5.06c0.95,1.15,2.32,1.72,4.13,1.72
			c1.82,0,3.19-0.57,4.12-1.72s1.39-2.83,1.39-5.07c0-2.21-0.46-3.88-1.39-5.03c-0.92-1.14-2.29-1.71-4.1-1.71
			c-1.82,0-3.2,0.58-4.15,1.72C72.95,111.06,72.47,112.73,72.47,114.92z"/>
		<path class="st1" d="M96.48,123.16l-5.57-14.55h-0.09c0.1,1.15,0.16,2.52,0.16,4.11v10.44h-1.76v-16.42h2.88l5.2,13.54h0.09
			l5.24-13.54h2.85v16.42h-1.91v-10.58c0-1.21,0.05-2.53,0.16-3.95h-0.09l-5.62,14.53H96.48z"/>
		<path class="st1" d="M119.14,123.16h-9.15v-16.42h9.15v1.7h-7.24v5.29h6.81v1.68h-6.81v6.04h7.24V123.16z"/>
		<path class="st1" d="M133.8,123.16h-1.91v-14.72h-5.2v-1.7H139v1.7h-5.2V123.16z"/>
		<path class="st1" d="M151.8,123.16l-2.04-5.22h-6.58l-2.02,5.22h-1.93l6.49-16.49h1.61l6.46,16.49H151.8z M149.16,116.22
			l-1.91-5.09c-0.25-0.64-0.5-1.43-0.76-2.37c-0.16,0.72-0.4,1.51-0.71,2.37l-1.93,5.09H149.16z"/>
		<path class="st1" d="M166.96,123.16h-2.17l-4.41-7.22l-4.49,7.22h-2.02l5.46-8.58l-5.09-7.84h2.11l4.08,6.5l4.11-6.5h2.03
			l-5.09,7.77L166.96,123.16z"/>
	</g>
</g>
</svg>
